<?xml version="1.0" standalone="no"?>
<!DOCTYPE svg PUBLIC "-//W3C//DTD SVG 20010904//EN"
 "http://www.w3.org/TR/2001/REC-SVG-20010904/DTD/svg10.dtd">
<svg version="1.0" xmlns="http://www.w3.org/2000/svg"
 width="980.000000pt" height="980.000000pt" viewBox="0 0 980.000000 980.000000"
 preserveAspectRatio="xMidYMid meet">

<g transform="translate(0.000000,980.000000) scale(0.100000,-0.100000)"
fill="#000000" stroke="none">
<path d="M4975 9184 c1 -23 8 -51 14 -62 16 -31 13 -49 -4 -26 -15 18 -16 17
-10 -16 5 -28 4 -32 -5 -20 -9 12 -10 6 -6 -25 l5 -40 -20 25 c-21 25 -21 25
0 -13 21 -38 30 -76 11 -47 -16 24 -12 -10 4 -39 13 -23 14 -23 19 -5 10 33
30 188 28 219 -1 16 -5 32 -9 35 -4 3 -13 16 -19 30 -11 23 -11 22 -8 -16z"/>
<path d="M4910 9070 c6 -11 13 -20 16 -20 2 0 0 9 -6 20 -6 11 -13 20 -16 20
-2 0 0 -9 6 -20z"/>
<path d="M4890 9050 c0 -8 5 -22 10 -30 9 -13 10 -13 10 0 0 8 -5 22 -10 30
-9 13 -10 13 -10 0z"/>
<path d="M5052 8946 c-15 -59 -15 -78 1 -46 26 52 37 81 28 76 -5 -4 -11 -1
-13 5 -2 6 -9 -10 -16 -35z"/>
<path d="M5115 8976 c19 -14 45 -11 45 5 0 5 -14 9 -32 9 -30 0 -30 -1 -13
-14z"/>
<path d="M4758 8963 c-28 -33 -39 -85 -29 -149 4 -32 12 -67 16 -76 8 -21 -19
-26 -31 -6 -4 7 -3 8 4 4 18 -11 15 0 -19 59 -32 58 -51 77 -24 25 19 -38 1
-40 -19 -2 -19 34 -21 20 -2 -16 22 -45 30 -76 16 -67 -14 9 -6 -22 16 -67 25
-48 15 -54 -12 -8 -14 25 -29 46 -34 48 -5 2 -21 34 -35 73 -15 38 -31 72 -37
75 -6 4 -8 -1 -4 -13 3 -11 8 -44 11 -74 2 -30 9 -70 15 -89 14 -50 13 -83 -3
-77 -11 4 -13 -6 -10 -46 2 -40 1 -48 -7 -32 -9 17 -9 15 -5 -10 4 -16 22 -61
41 -100 l34 -70 -44 47 -44 48 24 -67 c23 -63 23 -65 4 -48 -16 15 -13 2 16
-61 21 -43 41 -83 45 -88 5 -5 6 -35 2 -67 -3 -32 -2 -66 2 -76 4 -10 9 -29
10 -43 1 -14 5 -37 9 -50 4 -15 -2 -9 -15 14 -12 22 -22 44 -23 50 -3 14 -35
76 -40 76 -6 0 25 -84 36 -97 12 -15 3 -47 -11 -39 -5 3 -11 -1 -15 -9 -3 -8
-12 -15 -19 -15 -8 0 -21 -8 -28 -17 -10 -11 -10 -14 -1 -9 19 11 15 -19 -8
-56 -17 -28 -20 -30 -20 -12 0 12 -7 40 -15 63 -8 24 -16 71 -17 106 -3 54 -5
62 -17 52 -12 -10 -13 -9 -7 8 5 11 10 29 12 40 l4 20 -9 -20 c-8 -17 -10 -16
-10 12 -1 17 4 44 9 60 9 26 9 27 -5 9 -8 -11 -18 -35 -21 -53 -5 -27 -9 -31
-20 -22 -15 12 -20 34 -5 25 5 -3 11 16 14 42 2 26 8 56 11 67 5 15 4 14 -5
-2 -16 -31 -33 -29 -25 3 5 18 3 24 -5 19 -13 -9 -3 54 12 69 19 20 8 28 -12
10 l-21 -19 4 43 c5 54 -5 53 -29 -3 -10 -25 -21 -45 -25 -45 -4 0 -1 -19 7
-41 23 -65 17 -69 -15 -9 -26 50 -29 52 -30 26 0 -25 -2 -27 -17 -15 -15 13
-15 12 1 -12 17 -27 58 -161 51 -168 -2 -2 -7 8 -11 23 -3 14 -12 26 -19 26
-6 0 -20 9 -31 21 -10 12 -32 28 -49 36 -16 9 -46 29 -65 46 -32 28 -35 29
-38 11 -2 -10 -8 -23 -13 -28 -13 -14 -50 24 -48 48 1 12 -5 37 -14 56 l-16
35 -3 -50 c-2 -27 -7 -49 -13 -48 -13 4 -18 110 -5 118 5 3 10 14 9 23 0 14
-2 14 -6 2 -3 -8 -14 -27 -24 -41 -16 -23 -17 -28 -4 -45 21 -27 18 -40 -4
-20 -18 16 -19 15 -26 -31 -8 -52 -14 -47 -35 31 -9 32 -27 63 -54 90 l-40 41
23 -35 c32 -50 63 -119 59 -132 -2 -6 -29 30 -61 79 -58 93 -93 134 -81 97 3
-12 -7 -5 -25 16 -17 19 -29 40 -27 46 4 11 -16 34 -59 64 -15 11 -13 7 5 -14
l25 -29 -32 17 c-45 23 -49 20 -14 -10 37 -31 40 -44 9 -38 -15 3 -12 -1 10
-11 17 -8 32 -17 32 -20 0 -2 -15 -2 -32 1 l-33 6 30 -21 c17 -11 26 -21 20
-21 -5 0 -1 -6 10 -12 116 -63 132 -79 51 -52 -26 9 -49 14 -52 11 -3 -3 17
-13 45 -22 57 -19 83 -42 35 -31 -25 5 -24 3 11 -17 41 -22 128 -107 120 -116
-3 -2 -13 2 -22 10 -33 28 -105 71 -98 59 5 -8 3 -11 -4 -9 -7 3 -13 7 -13 10
0 4 -43 50 -94 102 -52 53 -94 103 -94 110 0 8 -17 27 -38 44 -30 24 -42 29
-61 21 l-24 -9 32 -32 c17 -19 28 -36 25 -40 -4 -4 17 -18 47 -32 30 -14 45
-23 34 -20 -11 4 -33 9 -50 11 l-30 5 28 -16 c32 -19 35 -29 6 -20 -42 14 -8
-17 46 -40 47 -21 175 -129 164 -139 -2 -2 -35 0 -73 5 -38 5 -71 7 -73 5 -2
-2 21 -14 51 -27 56 -23 67 -33 44 -42 -7 -3 13 -6 45 -6 31 -1 57 -5 57 -10
0 -4 -20 -14 -44 -21 -25 -7 -53 -22 -63 -33 -17 -19 -16 -19 20 2 29 18 49
22 86 19 47 -3 48 -2 35 17 -26 37 -14 39 22 4 55 -52 155 -176 206 -254 125
-193 298 -487 298 -508 0 -2 -19 -9 -42 -16 -42 -13 -128 -57 -128 -67 0 -2
12 2 28 10 82 42 289 86 409 86 44 0 61 -5 85 -25 22 -19 41 -25 77 -25 69 0
269 -26 341 -45 34 -9 64 -14 66 -12 9 9 -177 88 -243 103 l-73 16 20 27 c36
52 181 443 156 422 -8 -7 -23 -34 -32 -59 -23 -63 -142 -312 -149 -312 -3 0 5
21 19 48 25 50 69 182 62 189 -5 6 -40 -52 -70 -117 -18 -40 -24 -47 -20 -25
2 17 -10 -8 -27 -55 -32 -87 -45 -110 -60 -110 -10 0 -9 7 15 110 20 85 43
256 61 455 8 89 19 183 24 209 6 35 5 59 -4 85 l-14 36 -1 -55 c-2 -44 -4 -49
-9 -25 -8 35 -16 26 -25 -30 -7 -37 -6 -39 8 -20 8 11 16 15 16 8 0 -7 -8 -20
-19 -30 -28 -27 -35 -60 -17 -79 9 -8 16 -21 16 -27 0 -7 -7 -4 -14 6 -7 9
-16 17 -19 17 -5 0 -17 -55 -22 -100 -1 -8 -5 -33 -9 -56 -6 -35 -3 -47 18
-79 28 -40 33 -70 15 -81 -8 -4 -7 -9 2 -14 10 -7 7 -24 -15 -79 -15 -38 -34
-75 -43 -83 -14 -12 -15 -6 -10 57 6 67 5 66 -12 -27 -27 -137 -30 -139 -25
-8 6 123 26 278 50 373 8 32 19 86 24 120 11 79 37 204 49 237 5 14 15 52 22
85 7 37 20 66 33 77 l21 17 -24 45 c-22 43 -23 76 -2 76 5 0 7 9 4 20 -3 12
-8 18 -11 15 -3 -3 -11 7 -18 22 l-12 28 -2 -30 -1 -30 -13 24 -13 24 -6 -29
c-27 -134 -40 -162 -51 -106 -18 92 -18 103 -1 122 10 11 22 17 28 13 7 -4 8
12 3 46 -5 36 -4 51 4 46 5 -3 10 -5 10 -3 0 2 4 17 9 34 8 27 6 30 -13 30
-27 -1 -32 31 -16 91 14 49 10 61 -12 36z m-128 -311 c0 -7 7 -15 15 -19 16
-6 45 -53 45 -74 0 -33 -68 64 -85 121 -7 24 -7 24 9 5 8 -11 16 -26 16 -33z
m184 -217 c6 -33 5 -37 -5 -21 -19 31 -29 88 -21 131 l6 40 7 -55 c4 -30 10
-73 13 -95z m-184 52 c0 -47 -1 -50 -16 -35 -12 12 -14 26 -9 57 9 56 25 42
25 -22z m208 -17 c0 -8 -6 -1 -13 15 -8 17 -14 39 -14 50 0 13 5 8 14 -15 7
-19 13 -42 13 -50z m-59 -42 c6 1 11 -12 11 -33 0 -58 -23 -32 -48 53 -28 100
-27 113 2 37 13 -33 29 -59 35 -57z m-1005 -34 c3 -8 2 -12 -4 -9 -6 3 -10 10
-10 16 0 14 7 11 14 -7z m975 -174 c0 -8 -6 0 -14 19 -8 18 -15 38 -14 45 1
15 28 -46 28 -64z m-681 -19 c3 -8 -1 -12 -9 -9 -7 2 -15 10 -17 17 -3 8 1 12
9 9 7 -2 15 -10 17 -17z m689 -33 c-3 -7 -5 -2 -5 12 0 14 2 19 5 13 2 -7 2
-19 0 -25z m-489 -41 c40 -29 102 -108 102 -131 0 -5 -14 3 -32 20 -24 22 -29
24 -23 9 5 -11 9 -51 10 -90 3 -93 3 -97 14 -90 5 3 15 -11 21 -30 12 -35 35
-62 24 -28 -3 10 4 2 15 -17 11 -19 25 -52 31 -73 6 -21 14 -46 17 -55 7 -21
-139 135 -179 189 -49 67 -35 79 26 22 l40 -38 -37 44 c-46 55 -51 88 -7 46
43 -41 37 -18 -7 28 -22 23 -29 34 -16 26 33 -20 40 -3 10 25 -15 14 -27 36
-27 49 0 13 -9 36 -21 51 -28 35 -12 33 34 -5 20 -17 37 -27 37 -22 0 12 -70
78 -97 92 -13 7 -23 16 -23 22 0 12 29 -3 88 -44z m411 -42 c0 -5 -4 -3 -9 5
-5 8 -9 22 -9 30 0 16 17 -16 18 -35z m-609 -156 c35 -98 18 -102 -27 -7 -23
47 -47 89 -52 93 -6 3 -11 14 -11 23 0 33 68 -49 90 -109z m67 79 c-3 -8 -6
-5 -6 6 -1 11 2 17 5 13 3 -3 4 -12 1 -19z m13 -143 c16 -27 30 -43 30 -35 0
15 42 -29 90 -96 28 -40 160 -323 160 -344 0 -20 -18 0 -48 53 -16 29 -57 90
-91 134 -34 45 -73 107 -87 137 -14 31 -29 54 -33 52 -11 -7 -45 56 -75 139
l-26 70 25 -30 c14 -16 39 -52 55 -80z m15 74 c11 -17 -1 -21 -15 -4 -8 9 -8
15 -2 15 6 0 14 -5 17 -11z m322 -61 c-3 -8 -6 -5 -6 6 -1 11 2 17 5 13 3 -3
4 -12 1 -19z m104 -31 c-17 -17 -13 -31 4 -17 12 10 15 9 15 -5 0 -10 11 -37
25 -60 21 -37 24 -51 20 -122 -3 -45 -12 -113 -20 -152 -8 -40 -15 -75 -16
-79 0 -4 -9 34 -20 83 -11 50 -18 97 -17 105 1 8 -4 26 -11 39 -13 23 -12 26
15 136 4 15 1 14 -10 -5 -10 -17 -16 -20 -17 -10 -1 8 -4 2 -8 -15 -7 -30 -7
-30 -19 -8 -10 18 -9 29 5 60 22 49 43 74 55 67 6 -4 6 -10 -1 -17z m-153 -54
c34 -94 35 -136 2 -49 -28 74 -36 106 -26 106 2 0 13 -26 24 -57z m226 -3 c4
-20 3 -30 -3 -25 -5 6 -11 28 -15 50 -8 49 8 26 18 -25z m-237 -251 c14 -27
29 -49 33 -49 8 0 25 -40 34 -80 4 -16 -2 -10 -14 15 -15 30 -19 34 -15 13 3
-14 8 -33 11 -42 3 -9 2 -16 -3 -16 -9 0 -82 157 -98 210 -7 22 -6 23 9 11 9
-7 28 -35 43 -62z m307 -86 c-8 -46 -24 -67 -24 -32 0 35 11 69 22 69 5 0 6
-16 2 -37z"/>
<path d="M4600 7733 c0 -6 8 -17 18 -24 16 -13 16 -13 2 6 -8 11 -16 22 -17
24 -2 2 -3 0 -3 -6z"/>
<path d="M4610 8955 c0 -5 5 -17 10 -25 5 -8 10 -10 10 -5 0 6 -5 17 -10 25
-5 8 -10 11 -10 5z"/>
<path d="M4586 8905 c6 -50 34 -117 61 -144 14 -13 15 -12 8 9 -4 14 -18 46
-31 72 -25 49 -33 86 -13 58 7 -10 9 -11 7 -2 -2 8 -8 13 -13 12 -6 -1 -13 9
-17 22 -4 13 -5 1 -2 -27z"/>
<path d="M4891 8914 c0 -11 3 -14 6 -6 3 7 2 16 -1 19 -3 4 -6 -2 -5 -13z"/>
<path d="M5790 8901 c4 -16 13 -38 20 -48 11 -17 11 -17 4 2 -3 11 -9 30 -11
43 -3 12 -9 25 -14 27 -4 3 -4 -8 1 -24z"/>
<path d="M5774 8835 c8 -19 20 -43 26 -52 9 -15 10 -14 4 7 -8 30 -33 80 -39
80 -3 0 1 -16 9 -35z"/>
<path d="M5842 8833 c-6 -20 -10 -39 -8 -41 2 -2 9 13 16 33 7 20 10 38 8 41
-3 2 -10 -13 -16 -33z"/>
<path d="M4917 8815 c3 -27 7 -52 9 -54 7 -8 2 54 -6 79 -6 17 -7 9 -3 -25z"/>
<path d="M5100 8830 c-11 -11 -20 -24 -20 -30 0 -5 -7 -10 -15 -10 -8 0 -15
-6 -15 -13 0 -7 -7 -23 -17 -36 -15 -22 -17 -22 -28 -7 -11 15 -14 13 -28 -16
-41 -87 -31 -88 55 -4 47 45 80 84 74 88 -6 4 -3 15 8 27 24 27 12 27 -14 1z"/>
<path d="M6175 8826 c-17 -7 -37 -21 -45 -32 -14 -17 -14 -18 1 -6 10 7 34 21
55 32 44 22 35 26 -11 6z"/>
<path d="M4951 8784 c0 -11 3 -14 6 -6 3 7 2 16 -1 19 -3 4 -6 -2 -5 -13z"/>
<path d="M5851 8717 c-18 -47 -31 -91 -28 -99 2 -7 10 6 16 30 7 23 21 63 32
89 11 25 18 51 16 56 -2 6 -18 -29 -36 -76z"/>
<path d="M4850 8767 c0 -8 3 -28 6 -45 5 -27 8 -29 20 -17 20 20 17 53 -6 65
-16 8 -20 8 -20 -3z"/>
<path d="M5774 8706 c11 -30 22 -48 24 -41 3 12 -34 95 -42 95 -2 0 6 -24 18
-54z"/>
<path d="M6051 8724 c0 -11 3 -14 6 -6 3 7 2 16 -1 19 -3 4 -6 -2 -5 -13z"/>
<path d="M4994 8637 c-37 -37 -43 -50 -52 -111 -6 -38 -16 -74 -22 -80 -5 -5
-10 -35 -10 -65 0 -50 1 -53 14 -36 7 11 19 38 26 60 7 22 17 45 21 51 5 6 7
19 3 28 -3 9 -2 22 3 29 6 6 13 21 16 32 l7 20 -16 -20 c-16 -19 -16 -19 -10
10 4 17 20 42 37 58 16 15 25 27 19 27 -7 0 -7 6 0 20 15 28 11 25 -36 -23z
m-67 -239 c-3 -7 -5 -2 -5 12 0 14 2 19 5 13 2 -7 2 -19 0 -25z"/>
<path d="M6040 8634 c-8 -13 -42 -51 -77 -84 -61 -58 -76 -80 -50 -76 14 2 77
64 77 75 0 5 15 19 34 32 23 16 31 26 23 31 -8 5 -6 11 7 21 11 8 15 17 9 20
-5 4 -16 -5 -23 -19z"/>
<path d="M5750 8648 c0 -2 11 -25 25 -52 14 -27 25 -44 25 -37 0 14 -38 91
-45 91 -3 0 -5 -1 -5 -2z"/>
<path d="M3560 8626 c0 -3 9 -10 20 -16 11 -6 20 -8 20 -6 0 3 -9 10 -20 16
-11 6 -20 8 -20 6z"/>
<path d="M5019 8583 c-13 -16 -12 -17 4 -4 9 7 17 15 17 17 0 8 -8 3 -21 -13z"/>
<path d="M5865 8551 c-3 -12 -11 -21 -16 -21 -5 0 -9 -12 -9 -27 -1 -27 -1
-27 -15 -9 -14 18 -14 17 -14 -10 0 -16 -1 -40 -4 -54 -2 -14 -2 -17 0 -7 2 9
13 17 24 17 12 0 19 7 19 18 0 10 9 35 20 57 12 23 16 43 11 48 -5 5 -12 0
-16 -12z"/>
<path d="M3548 8543 c7 -3 16 -2 19 1 4 3 -2 6 -13 5 -11 0 -14 -3 -6 -6z"/>
<path d="M4981 8403 c-36 -42 -47 -61 -40 -70 6 -7 8 -17 4 -23 -3 -5 -2 -10
4 -10 13 0 33 35 24 43 -3 3 11 25 31 48 31 37 46 69 32 69 -2 0 -27 -26 -55
-57z"/>
<path d="M5748 8430 c-2 -8 -1 -28 3 -44 5 -16 6 -34 2 -40 -4 -8 -2 -8 6 0 9
9 10 24 4 55 -5 25 -12 37 -15 29z"/>
<path d="M5850 8421 c0 -17 15 -19 28 -5 11 12 9 14 -8 14 -11 0 -20 -4 -20
-9z"/>
<path d="M5465 8388 c-4 -18 -14 -46 -22 -61 l-14 -28 25 16 c24 16 25 16 28
-9 3 -21 5 -23 20 -12 9 7 20 24 23 37 6 24 4 25 -25 21 -34 -5 -34 -2 -13 56
3 6 1 12 -5 12 -6 0 -14 -15 -17 -32z"/>
<path d="M5229 8363 c-13 -16 -12 -17 4 -4 9 7 17 15 17 17 0 8 -8 3 -21 -13z"/>
<path d="M5961 8345 c-17 -15 -35 -24 -41 -20 -5 3 -10 0 -10 -8 0 -17 -48
-63 -57 -54 -3 4 -15 0 -25 -10 -32 -29 -19 -33 25 -8 23 13 56 32 72 41 32
17 81 72 72 80 -2 3 -18 -7 -36 -21z"/>
<path d="M5586 8335 c-9 -26 -7 -32 5 -12 6 10 9 21 6 23 -2 3 -7 -2 -11 -11z"/>
<path d="M5735 8310 c-5 -8 -15 -26 -23 -40 l-15 -25 27 26 c16 15 26 33 24
40 -3 10 -6 10 -13 -1z"/>
<path d="M4181 8287 c-1 -20 -5 -26 -13 -21 -8 5 -6 -2 3 -16 9 -14 24 -27 34
-28 13 -3 15 0 9 10 -5 7 -14 29 -20 48 -12 34 -12 34 -13 7z"/>
<path d="M4425 8299 c-4 -6 -5 -12 -2 -15 2 -3 7 2 10 11 7 17 1 20 -8 4z"/>
<path d="M3568 8283 c7 -3 16 -2 19 1 4 3 -2 6 -13 5 -11 0 -14 -3 -6 -6z"/>
<path d="M4912 8270 c0 -14 2 -19 5 -12 2 6 2 18 0 25 -3 6 -5 1 -5 -13z"/>
<path d="M3608 8273 c7 -3 16 -2 19 1 4 3 -2 6 -13 5 -11 0 -14 -3 -6 -6z"/>
<path d="M4985 8204 c-33 -35 -63 -73 -67 -84 -12 -32 14 -14 52 37 19 26 40
51 45 58 36 39 47 55 39 55 -5 0 -36 -30 -69 -66z"/>
<path d="M5495 8260 c-3 -5 -2 -10 4 -10 5 0 13 5 16 10 3 6 2 10 -4 10 -5 0
-13 -4 -16 -10z"/>
<path d="M5268 8249 c-15 -8 -44 -49 -36 -49 2 0 16 14 31 30 31 32 31 35 5
19z"/>
<path d="M5356 8229 c-20 -17 -36 -39 -34 -48 1 -9 -1 -22 -6 -29 -5 -9 6 -7
30 6 22 11 46 22 54 26 8 3 3 4 -12 1 -34 -7 -37 12 -7 44 32 34 17 34 -25 0z"/>
<path d="M5445 8250 c-3 -6 1 -7 9 -4 18 7 21 14 7 14 -6 0 -13 -4 -16 -10z"/>
<path d="M5440 8205 c-17 -10 -20 -14 -9 -15 9 0 22 7 29 15 15 18 12 18 -20
0z"/>
<path d="M5184 8188 l-19 -23 23 19 c21 18 27 26 19 26 -2 0 -12 -10 -23 -22z"/>
<path d="M4280 8191 c0 -5 5 -13 10 -16 6 -3 10 -2 10 4 0 5 -4 13 -10 16 -5
3 -10 2 -10 -4z"/>
<path d="M5239 8159 l-24 -20 28 17 c15 9 27 18 27 20 0 8 -8 4 -31 -17z"/>
<path d="M5625 8153 l-18 -28 27 24 c28 26 31 31 17 31 -5 0 -17 -12 -26 -27z"/>
<path d="M5755 8154 c-22 -8 -46 -17 -54 -19 -8 -3 -11 -8 -8 -11 6 -6 147 34
147 41 0 9 -46 3 -85 -11z"/>
<path d="M3508 8153 c12 -2 30 -2 40 0 9 3 -1 5 -23 4 -22 0 -30 -2 -17 -4z"/>
<path d="M4579 8142 c5 -10 18 -25 28 -33 12 -10 11 -5 -6 19 -24 35 -38 43
-22 14z"/>
<path d="M5105 8130 c-4 -12 -5 -24 -2 -27 3 -2 8 5 12 17 4 12 5 24 2 27 -3
2 -8 -5 -12 -17z"/>
<path d="M5396 8134 c-23 -23 -20 -30 4 -9 11 10 20 20 20 22 0 7 -9 2 -24
-13z"/>
<path d="M3658 8133 c7 -3 16 -2 19 1 4 3 -2 6 -13 5 -11 0 -14 -3 -6 -6z"/>
<path d="M3609 8113 c-13 -15 -12 -15 9 -4 23 12 28 21 13 21 -5 0 -15 -7 -22
-17z"/>
<path d="M5610 8078 c-25 -22 -31 -31 -15 -19 50 35 69 51 64 55 -2 2 -24 -14
-49 -36z"/>
<path d="M5320 8079 c-20 -5 -21 -7 -6 -8 17 -1 15 -5 -12 -24 -17 -13 -49
-31 -70 -41 -21 -9 -44 -27 -51 -39 l-14 -22 24 21 c13 12 39 29 58 39 49 25
113 73 104 78 -4 2 -19 1 -33 -4z"/>
<path d="M3820 8077 c0 -4 65 -50 100 -71 11 -7 10 -4 -2 10 -17 19 -98 70
-98 61z"/>
<path d="M5293 8000 c-23 -22 -38 -40 -32 -40 5 0 29 18 52 40 23 22 38 39 32
39 -5 0 -29 -17 -52 -39z"/>
<path d="M5030 7910 c-6 -11 -8 -20 -6 -20 3 0 10 9 16 20 6 11 8 20 6 20 -3
0 -10 -9 -16 -20z"/>
<path d="M5269 7873 l-24 -28 28 24 c15 14 27 26 27 28 0 8 -8 1 -31 -24z"/>
<path d="M4967 7818 c-16 -17 -33 -41 -39 -52 -11 -23 46 38 62 67 16 26 8 21
-23 -15z"/>
<path d="M5189 7803 c-24 -27 -62 -70 -83 -96 -26 -31 -42 -44 -47 -36 -4 8
-9 3 -14 -12 -4 -13 -32 -80 -62 -147 -30 -68 -52 -126 -49 -129 13 -13 38 10
55 49 10 24 38 88 62 143 24 55 55 111 69 125 26 25 123 150 116 150 -2 0 -23
-21 -47 -47z"/>
<path d="M5197 7651 c-21 -10 -44 -24 -50 -31 -10 -10 89 34 102 46 10 9 -17
1 -52 -15z"/>
<path d="M4470 7190 c-139 -16 -130 -39 12 -33 74 3 99 1 88 -6 -8 -6 -32 -11
-52 -11 -21 0 -38 -4 -38 -9 0 -11 81 -5 200 15 137 23 137 29 -1 44 -103 11
-113 11 -209 0z"/>
<path d="M3855 6679 c5 -19 2 -28 -10 -33 -9 -3 -13 -10 -10 -16 3 -5 2 -10
-3 -10 -5 0 -12 9 -15 20 -3 13 0 20 9 20 8 0 14 5 14 10 0 35 -78 -48 -87
-93 -6 -29 -55 -77 -79 -77 -7 0 -22 -17 -33 -37 -10 -21 -29 -58 -42 -83 -13
-25 -43 -69 -67 -99 -58 -73 -68 -94 -81 -178 -6 -39 -15 -83 -21 -97 -5 -14
-7 -33 -4 -41 4 -9 0 -15 -9 -15 -20 0 -44 -62 -57 -147 -6 -37 -20 -106 -30
-151 -11 -46 -20 -103 -19 -125 2 -60 -21 -419 -27 -429 -6 -9 14 -159 21
-167 3 -2 17 6 32 20 18 16 24 19 20 8 -3 -9 -1 -21 5 -27 7 -7 4 -21 -12 -47
-30 -49 -26 -154 14 -333 9 -40 16 -91 16 -114 0 -26 11 -60 34 -101 20 -37
39 -90 46 -132 7 -38 16 -74 20 -80 13 -19 32 -104 26 -120 -11 -29 32 -118
72 -149 l37 -28 -32 7 c-31 6 -33 5 -33 -19 0 -21 5 -26 23 -26 21 0 25 -7 35
-52 6 -29 13 -75 17 -103 7 -60 28 -114 68 -174 l30 -44 -27 5 c-31 6 -30 7
-11 -38 31 -76 75 -213 75 -235 -1 -25 -21 -59 -36 -59 -12 0 -61 45 -66 61
-4 12 -24 -8 -136 -132 -57 -62 -108 -97 -170 -112 -61 -16 -119 -58 -128 -92
-3 -14 -11 -25 -18 -25 -6 0 -2 -6 9 -12 18 -11 35 -15 73 -17 21 -2 13 -16
-19 -35 -53 -32 -23 -29 42 4 84 42 194 125 297 224 70 68 85 77 96 65 7 -8
28 -57 45 -109 18 -52 37 -99 42 -105 15 -15 10 62 -6 101 -23 56 -2 71 45 34
20 -16 21 -19 5 -14 -11 4 -26 11 -32 17 -14 10 -19 -4 -6 -16 12 -12 42 -88
33 -82 -17 10 -11 -8 25 -79 19 -38 41 -92 49 -120 20 -66 61 -115 106 -126
33 -7 32 -8 -19 -9 l-55 -1 31 -32 c38 -40 53 -70 91 -178 35 -98 70 -192 140
-375 142 -372 131 -339 132 -433 0 -48 4 -103 9 -122 l9 -35 1 45 c1 41 3 46
26 48 19 1 25 -3 25 -19 0 -16 4 -19 21 -14 12 4 19 3 16 -1 -4 -8 19 -10 67
-5 8 0 13 7 12 14 -2 21 19 21 29 -2 11 -23 20 -27 30 -11 3 6 -1 13 -9 16 -9
4 -16 18 -16 34 0 38 -10 61 -23 53 -6 -4 -8 0 -4 10 3 10 2 17 -3 17 -5 0 -7
7 -3 16 3 9 2 19 -4 23 -9 6 -37 99 -50 166 -3 17 -9 35 -13 40 -4 6 -11 28
-14 50 -11 60 -66 228 -80 245 -8 8 -16 44 -20 79 -3 36 -10 67 -15 70 -7 6
-19 86 -27 190 -2 24 -8 49 -14 55 -5 5 -10 22 -10 37 0 15 -4 30 -9 33 -4 3
-6 16 -4 28 2 13 -1 34 -7 48 -10 24 -10 24 -5 -5 4 -22 3 -26 -4 -15 -6 8
-10 31 -9 51 1 20 -2 41 -5 47 -4 5 -2 12 5 14 18 6 23 265 8 428 -9 107 -9
143 0 160 8 14 12 65 11 136 0 62 3 123 8 136 4 13 5 43 2 68 -5 31 -3 54 7
74 8 16 9 25 3 22 -7 -4 -11 1 -11 13 0 11 6 24 14 28 17 10 56 78 56 98 0 8
11 21 23 30 24 15 33 31 58 92 11 26 43 53 69 57 3 1 11 5 18 9 7 5 70 13 141
18 156 11 244 28 361 72 216 82 436 270 529 454 26 53 27 89 2 103 -27 14 -45
5 -76 -41 -39 -55 -179 -187 -248 -232 -74 -50 -205 -111 -282 -132 -93 -26
-340 -32 -446 -11 -91 19 -209 65 -294 117 -53 32 -173 129 -160 129 4 0 24
-15 45 -34 52 -47 120 -85 179 -101 40 -10 49 -10 45 0 -3 7 -1 16 5 20 16 9
13 34 -5 52 -11 11 -12 19 -5 26 6 6 11 16 11 21 0 6 -5 4 -10 -4 -7 -10 -10
-11 -10 -2 0 6 -11 34 -24 62 -21 43 -22 49 -7 53 11 3 9 5 -6 6 -22 1 -32 16
-15 23 5 2 5 14 1 28 l-7 25 -1 -24 c-1 -19 -4 -22 -12 -14 -14 14 8 48 31 48
11 0 14 9 12 32 -2 17 1 41 7 52 8 15 7 23 -5 35 -14 15 -14 16 1 16 20 0 65
29 65 42 0 5 -6 6 -12 3 -7 -4 -2 3 12 15 l25 21 -23 -6 c-26 -8 -45 -11 -112
-20 -42 -6 -40 -5 22 18 223 78 368 296 368 552 0 154 -43 337 -103 435 -18
30 -41 69 -51 85 l-18 30 22 -28 c31 -39 58 -51 76 -36 9 7 45 17 82 23 37 7
67 16 67 21 0 6 -36 11 -80 13 -91 3 -107 13 -146 90 -13 26 -34 63 -47 82
-13 19 -21 43 -18 53 3 13 -8 27 -37 48 -23 17 -41 35 -39 40 1 6 -3 9 -10 8
-34 -4 -42 1 -22 16 15 11 16 15 4 16 -8 1 -18 1 -22 0 -5 0 -8 5 -8 11 0 10
-3 9 -9 -1 -5 -7 -14 -10 -20 -6 -9 5 -7 11 6 21 16 12 14 12 -17 3 -52 -14
-245 -10 -267 7 -10 7 -25 14 -33 14 -8 0 -23 18 -34 40 -16 33 -18 55 -14
134 3 52 1 100 -4 108 -5 8 -6 4 -3 -13z m332 -600 c63 -27 90 -46 163 -118
70 -70 96 -103 134 -178 81 -160 104 -303 71 -456 -36 -173 -175 -338 -330
-392 -66 -23 -200 -31 -278 -15 -150 29 -282 131 -351 271 -51 105 -66 175
-66 305 0 198 52 336 170 454 74 73 159 123 246 144 98 24 156 20 241 -15z
m-390 -1169 c66 -20 107 -39 86 -40 -47 -1 -203 70 -203 93 0 5 12 -1 26 -12
15 -12 56 -30 91 -41z m346 -27 c-7 -2 -19 -2 -25 0 -7 3 -2 5 12 5 14 0 19
-2 13 -5z m142 -1103 c-20 -22 -31 -20 -22 5 4 8 14 15 23 15 16 0 16 -2 -1
-20z"/>
<path d="M4032 5782 c-70 -25 -133 -87 -168 -166 -23 -50 -28 -76 -28 -146 -1
-76 2 -91 29 -139 98 -178 316 -215 470 -80 49 43 96 147 102 223 17 210 -206
379 -405 308z m224 -40 c22 -11 54 -35 72 -53 34 -35 36 -54 2 -24 -15 13 -23
16 -31 8 -12 -12 -42 -6 -34 7 5 8 -83 23 -136 23 -39 -1 -98 -28 -161 -74
-22 -16 -44 -26 -49 -23 -37 23 49 123 128 148 62 20 156 15 209 -12z m158
-178 c3 -9 6 -45 6 -80 0 -70 -3 -72 -59 -53 -30 11 -31 13 -31 70 0 57 1 59
33 68 45 13 44 13 51 -5z m-481 -30 c37 -8 34 -25 -9 -46 -49 -25 -54 -23 -54
23 0 34 3 40 18 35 9 -3 29 -8 45 -12z"/>
<path d="M3692 6620 c0 -14 2 -19 5 -12 2 6 2 18 0 25 -3 6 -5 1 -5 -13z"/>
<path d="M5459 6271 c-13 -39 -27 -71 -31 -71 -10 0 -11 -3 12 59 28 71 19 76
-13 8 l-25 -55 -89 -28 c-99 -32 -211 -101 -257 -160 -40 -50 -91 -156 -111
-229 -26 -94 -31 -274 -11 -376 24 -120 98 -269 170 -341 55 -55 170 -121 231
-133 17 -4 6 4 -27 18 -152 65 -227 134 -293 271 -101 208 -101 396 1 614 35
76 57 107 121 172 92 93 120 104 268 104 120 1 179 -16 277 -81 131 -86 213
-201 253 -355 13 -51 24 -83 25 -71 0 18 8 23 38 28 66 11 68 13 15 14 -55 1
-70 14 -30 27 20 7 20 8 -10 16 -52 14 -39 27 30 30 l62 3 -72 13 c-40 8 -73
17 -73 21 0 4 21 17 46 29 56 27 54 35 -4 19 -36 -10 -45 -9 -59 6 -16 16 -16
17 12 18 17 0 39 4 50 9 17 7 15 9 -13 9 -40 1 -88 25 -101 50 -9 16 -6 21 17
30 15 7 43 25 62 41 l35 30 -45 -20 c-84 -37 -111 -20 -30 19 27 13 60 35 72
49 l23 25 -40 -26 c-41 -27 -116 -57 -142 -57 -13 0 -13 3 -3 15 10 13 9 15
-10 15 -19 0 -20 2 -10 15 11 13 8 14 -21 9 l-34 -5 25 15 25 15 -33 1 -34 0
61 52 c72 60 74 76 3 24 -50 -36 -112 -58 -112 -38 0 5 6 12 14 15 14 6 106
120 106 133 0 4 -27 -23 -61 -60 -33 -36 -66 -66 -72 -66 -6 0 10 22 36 48 65
66 59 75 -9 13 -48 -44 -84 -64 -84 -46 0 2 11 38 25 79 35 104 30 123 -11 44
-19 -38 -41 -68 -49 -68 -18 0 -18 -3 1 54 25 72 8 67 -25 -8 -18 -40 -36 -66
-46 -66 -18 0 -18 8 -4 84 6 32 8 60 6 63 -3 2 -16 -27 -28 -66z"/>
<path d="M5273 5806 c-137 -45 -222 -175 -211 -324 12 -161 126 -283 282 -299
136 -14 265 79 310 225 6 17 3 22 -12 22 -10 0 -39 7 -65 16 -46 16 -47 17
-49 60 -1 24 -2 52 -2 61 -1 13 11 20 42 27 23 5 42 12 42 15 0 3 -9 20 -19
38 -14 22 -25 30 -39 27 -10 -3 -35 5 -56 17 -26 15 -60 24 -110 27 l-72 4
-79 -54 c-95 -64 -115 -73 -115 -52 0 73 138 174 240 174 46 0 126 -29 164
-59 37 -30 91 -92 99 -114 2 -7 7 -9 11 -5 11 10 -30 84 -69 123 -20 19 -55
45 -78 56 -52 27 -155 34 -214 15z m-122 -250 l42 -24 -31 -31 c-47 -48 -62
-42 -62 24 0 30 2 55 4 55 2 0 23 -11 47 -24z"/>
<path d="M5383 4933 c9 -2 23 -2 30 0 6 3 -1 5 -18 5 -16 0 -22 -2 -12 -5z"/>
<path d="M4265 4563 c15 -36 25 -52 25 -41 0 11 -30 78 -35 78 -3 0 2 -17 10
-37z"/>
<path d="M4560 4591 c24 -7 24 -7 -9 -14 -19 -4 -32 -9 -30 -11 2 -1 72 -1
154 2 l150 6 -65 12 c-68 14 -245 18 -200 5z"/>
<path d="M4318 3713 c-10 -2 -18 -9 -18 -14 0 -12 268 -1 310 12 26 8 -262 10
-292 2z"/>
<path d="M4261 3484 c0 -11 3 -14 6 -6 3 7 2 16 -1 19 -3 4 -6 -2 -5 -13z"/>
<path d="M5767 2988 c-6 -21 7 -48 23 -48 4 0 6 10 5 23 -1 12 -3 28 -4 35 -2
20 -18 14 -24 -10z"/>
<path d="M2626 2552 c-3 -3 -6 -14 -6 -24 0 -10 -9 -22 -20 -26 l-21 -8 21
-23 c30 -35 25 -55 -20 -85 -22 -14 -40 -28 -40 -30 0 -14 75 22 89 43 29 42
55 131 42 144 -12 12 -37 18 -45 9z"/>
<path d="M4645 2440 c-12 -5 24 -6 85 -3 58 3 107 7 109 9 9 8 -175 2 -194 -6z"/>
<path d="M4611 1394 c0 -11 3 -14 6 -6 3 7 2 16 -1 19 -3 4 -6 -2 -5 -13z"/>
<path d="M4599 1313 c-13 -15 -12 -15 7 -5 13 7 33 8 60 2 58 -14 74 -11 35 5
-44 20 -85 19 -102 -2z"/>
<path d="M4780 1300 c-16 -6 5 -8 61 -7 48 1 85 5 82 10 -6 9 -111 7 -143 -3z"/>
<path d="M4940 1282 c0 -4 4 -12 9 -17 14 -17 32 -105 38 -192 3 -46 10 -83
16 -83 6 0 7 48 3 132 -5 102 -10 136 -23 150 -16 18 -43 25 -43 10z"/>
<path d="M4433 689 l2 -72 -40 -31 c-61 -47 -116 -106 -110 -117 9 -13 222
-11 248 3 21 11 21 11 2 19 -11 4 -43 8 -72 8 -69 1 -77 18 -13 27 28 4 53 10
56 15 3 5 1 25 -5 44 -6 21 -6 47 -1 63 5 15 11 46 13 70 l5 42 -43 0 -44 0 2
-71z"/>
<path d="M5007 690 c5 -57 4 -63 -31 -119 -43 -70 -45 -94 -11 -109 32 -15
224 -16 245 -2 13 9 13 12 0 23 -9 6 -14 20 -12 29 5 25 -32 51 -86 63 -38 8
-48 15 -50 33 -2 13 1 28 6 35 6 7 14 29 20 49 10 37 10 38 -26 48 -62 17 -62
16 -55 -50z"/>
</g>
</svg>
