<?xml version="1.0" standalone="no"?>
<!DOCTYPE svg PUBLIC "-//W3C//DTD SVG 20010904//EN"
 "http://www.w3.org/TR/2001/REC-SVG-20010904/DTD/svg10.dtd">
<svg version="1.0" xmlns="http://www.w3.org/2000/svg"
 width="320.000000pt" height="398.000000pt" viewBox="0 0 320.000000 398.000000"
 preserveAspectRatio="xMidYMid meet">

<g transform="translate(0.000000,398.000000) scale(0.100000,-0.100000)"
fill="#000000" stroke="none">
<path d="M1761 3973 c-14 -3 -50 -31 -82 -62 -44 -44 -61 -70 -73 -112 -57
-192 -40 -408 53 -654 51 -135 86 -193 168 -282 34 -37 79 -94 99 -126 30 -49
35 -64 29 -93 -4 -26 -1 -44 14 -70 12 -19 21 -43 21 -53 0 -9 -20 -72 -45
-138 -24 -67 -49 -143 -55 -170 -9 -38 -21 -57 -58 -91 -69 -63 -124 -76 -276
-67 -426 27 -725 -27 -886 -162 -113 -93 -271 -297 -337 -434 -41 -84 -53
-126 -94 -339 -42 -218 -43 -235 -29 -297 8 -32 20 -67 27 -78 7 -11 13 -27
13 -37 0 -52 128 -138 205 -137 46 0 109 20 134 43 16 14 22 14 69 -4 68 -26
308 -70 381 -70 l58 0 17 -45 c23 -58 100 -128 174 -155 31 -12 91 -24 133
-27 92 -7 289 6 289 18 0 5 -26 16 -57 25 -51 15 -71 16 -163 6 -139 -16 -173
-15 -218 3 -38 16 -82 52 -82 67 0 4 25 8 55 8 30 0 88 5 129 11 l75 11 -4 47
-5 46 10 -40 c6 -22 12 -50 15 -63 3 -12 16 -26 28 -31 66 -25 68 -23 17 28
-33 33 -50 58 -50 75 0 14 -4 28 -10 31 -5 3 -10 17 -10 31 l0 25 83 -6 c92
-8 126 -25 142 -71 6 -16 24 -50 42 -75 33 -47 52 -104 78 -227 18 -89 49
-163 79 -191 18 -17 39 -23 97 -26 l74 -5 -55 13 c-77 18 -111 37 -137 76 -46
68 -42 139 10 172 27 17 43 19 102 14 108 -9 171 -24 201 -47 28 -23 94 -148
95 -183 0 -20 0 -20 8 0 13 32 -26 137 -68 184 -28 31 -28 91 -1 116 15 13 30
16 65 13 50 -6 71 -25 106 -96 20 -40 20 -44 5 -67 -13 -20 -25 -25 -56 -25
-46 0 -62 -17 -25 -26 55 -14 135 17 135 52 0 6 -20 39 -45 72 -88 118 -115
211 -115 404 l0 117 73 50 c142 96 262 264 287 401 14 77 36 138 87 249 62
133 83 191 83 229 0 30 2 32 33 32 104 0 216 84 241 180 4 15 -2 9 -15 -15
-50 -94 -131 -147 -226 -149 -84 -1 -135 52 -149 156 -6 41 -2 51 37 116 51
82 164 203 213 226 18 8 59 22 91 30 31 9 63 20 69 25 9 8 16 1 24 -22 7 -18
22 -43 33 -57 16 -19 15 -14 -6 25 -17 32 -32 82 -40 137 -8 49 -25 113 -39
144 -38 82 -134 173 -233 219 -43 20 -96 45 -119 56 -63 31 -77 64 -69 162 19
239 63 457 124 612 52 131 63 148 98 157 62 16 86 93 38 124 -37 24 -56 12
-187 -113 -192 -184 -227 -220 -268 -284 -40 -62 -90 -198 -90 -244 0 -54 -19
-30 -30 37 -13 85 -41 168 -74 218 -13 19 -30 58 -40 86 -32 97 -152 276 -220
328 -75 57 -142 74 -225 59z m176 -79 c31 -15 74 -49 107 -84 167 -181 223
-435 183 -837 -14 -132 -21 -148 -73 -159 -27 -5 -33 -1 -58 35 -16 22 -78 87
-139 143 -116 109 -167 185 -167 254 0 18 -9 74 -19 125 -11 52 -29 162 -41
244 -11 83 -27 169 -35 193 -17 52 -14 63 27 87 68 40 129 39 215 -1z m653
-1414 c15 -11 32 -32 38 -47 18 -45 30 -133 20 -139 -5 -3 -36 -8 -67 -11 -49
-5 -68 -1 -115 20 -48 22 -60 33 -75 69 -29 67 -32 83 -18 102 29 39 165 43
217 6z"/>
<path d="M2433 2475 c-28 -19 -38 -68 -23 -105 21 -50 139 -87 189 -60 20 10
22 17 16 48 -15 81 -63 132 -124 132 -20 0 -46 -7 -58 -15z m109 -34 c40 -36
32 -52 -11 -21 -18 14 -38 21 -50 17 -27 -7 -37 9 -14 22 28 16 40 13 75 -18z"/>
<path d="M3024 2136 c-11 -28 47 -133 67 -120 13 7 49 94 49 116 0 31 -24 15
-31 -21 -10 -46 -16 -48 -35 -8 -19 39 -42 54 -50 33z"/>
<path d="M3188 2052 c-12 -123 -66 -213 -153 -253 -34 -16 -36 -18 -10 -13 79
16 134 79 160 181 9 35 15 84 13 110 -3 44 -4 41 -10 -25z"/>
<path d="M75 1335 c-22 -8 -41 -15 -42 -15 -1 0 -10 -14 -19 -31 -11 -22 -14
-42 -8 -68 l7 -36 9 37 c11 43 58 88 92 88 28 0 76 -36 76 -55 0 -8 9 -19 20
-25 18 -10 20 -8 20 20 0 34 -46 90 -73 90 -9 0 -21 2 -29 5 -7 2 -31 -2 -53
-10z"/>
<path d="M40 1135 c0 -29 107 -125 139 -125 24 0 -24 62 -64 82 -22 11 -48 27
-57 36 -10 8 -18 12 -18 7z"/>
<path d="M212 615 c-7 -29 -41 -92 -77 -147 -73 -109 -93 -164 -79 -223 12
-50 46 -70 140 -85 51 -8 89 -8 139 0 110 18 225 64 225 91 0 20 -30 68 -52
83 -40 28 -51 21 -44 -28 6 -40 4 -47 -21 -70 -66 -61 -220 -86 -293 -48 -19
10 -43 34 -52 53 -23 46 -13 81 56 196 59 98 80 152 74 198 -3 27 -4 24 -16
-20z"/>
<path d="M480 518 l-21 -43 31 35 c31 35 37 50 20 50 -5 0 -19 -19 -30 -42z"/>
</g>
</svg>
