<?xml version="1.0" standalone="no"?>
<!DOCTYPE svg PUBLIC "-//W3C//DTD SVG 20010904//EN"
 "http://www.w3.org/TR/2001/REC-SVG-20010904/DTD/svg10.dtd">
<svg version="1.0" xmlns="http://www.w3.org/2000/svg"
 width="320.000000pt" height="398.000000pt" viewBox="0 0 320.000000 398.000000"
 preserveAspectRatio="xMidYMid meet">

<g transform="translate(0.000000,398.000000) scale(0.100000,-0.100000)"
fill="#000000" stroke="none">
<path d="M1292 3961 c-23 -11 -58 -32 -78 -47 -68 -52 -188 -231 -220 -328
-10 -28 -27 -67 -40 -86 -33 -50 -61 -133 -74 -218 -11 -67 -30 -91 -30 -37 0
46 -50 182 -90 244 -41 64 -76 100 -268 284 -131 125 -150 137 -187 113 -48
-31 -24 -108 38 -124 35 -9 46 -26 98 -157 61 -155 105 -373 124 -612 8 -98
-6 -131 -69 -162 -23 -11 -76 -36 -119 -56 -99 -46 -195 -137 -233 -219 -14
-31 -31 -95 -39 -144 -8 -55 -23 -105 -40 -137 -21 -39 -22 -44 -6 -25 11 14
26 39 33 57 8 23 15 30 24 22 6 -5 38 -16 69 -25 32 -8 73 -22 91 -30 49 -23
162 -144 213 -226 39 -65 43 -75 37 -116 -14 -104 -65 -157 -149 -156 -95 2
-176 55 -226 149 -13 24 -19 30 -15 15 25 -96 137 -180 241 -180 31 0 33 -2
33 -32 0 -38 21 -96 83 -229 51 -111 73 -172 87 -249 25 -137 145 -305 287
-401 l73 -50 0 -117 c0 -193 -27 -286 -115 -404 -25 -33 -45 -66 -45 -72 0
-35 80 -66 135 -52 37 9 21 26 -25 26 -31 0 -43 5 -56 25 -15 23 -15 27 5 67
35 71 56 90 106 96 35 3 50 0 65 -13 27 -25 27 -85 -1 -116 -42 -47 -81 -152
-68 -184 8 -20 8 -20 8 0 1 35 67 160 95 183 30 23 93 38 201 47 59 5 75 3
102 -14 52 -33 56 -104 10 -172 -26 -39 -60 -58 -137 -76 l-55 -13 74 5 c58 3
79 9 97 26 30 28 61 102 79 191 26 123 45 180 78 227 18 25 37 59 42 75 16 46
50 63 143 71 l82 6 0 -25 c0 -14 -5 -28 -10 -31 -6 -3 -10 -17 -10 -31 0 -17
-17 -42 -50 -75 -51 -51 -49 -53 17 -28 12 5 25 19 28 31 3 13 9 41 15 63 l10
40 -5 -46 -4 -47 75 -11 c41 -6 99 -11 129 -11 30 0 55 -4 55 -8 0 -15 -44
-51 -82 -67 -45 -18 -79 -19 -218 -3 -92 10 -112 9 -162 -6 -32 -9 -58 -20
-58 -25 0 -12 197 -25 289 -18 42 3 102 15 133 27 74 27 151 97 174 155 l17
45 58 0 c73 0 313 44 381 70 47 18 53 18 69 4 25 -23 88 -43 134 -43 77 -1
205 85 205 137 0 10 6 26 13 37 7 11 19 46 27 78 14 62 13 79 -29 297 -41 213
-53 255 -94 339 -66 137 -224 341 -337 434 -161 135 -460 189 -886 162 -152
-9 -207 4 -276 67 -37 34 -49 53 -58 91 -6 27 -31 103 -55 170 -25 66 -45 129
-45 138 0 10 9 34 21 53 15 26 18 44 14 70 -6 29 -1 44 29 93 20 32 65 89 99
126 82 89 117 147 168 282 59 157 81 266 83 415 2 201 -33 300 -135 382 -50
40 -134 48 -197 19z m180 -64 c47 -25 50 -36 33 -89 -8 -24 -24 -110 -35 -193
-12 -82 -30 -192 -41 -244 -10 -51 -19 -107 -19 -125 0 -69 -51 -145 -167
-254 -61 -56 -123 -121 -139 -143 -25 -36 -31 -40 -58 -35 -52 11 -59 27 -73
159 -39 397 15 653 178 831 107 117 218 150 321 93z m-662 -1407 c29 -16 31
-39 7 -98 -20 -51 -28 -60 -77 -85 -48 -25 -63 -28 -116 -24 -34 2 -66 7 -72
11 -10 6 2 93 20 139 12 31 51 63 88 70 34 7 128 -1 150 -13z"/>
<path d="M646 2469 c-32 -25 -52 -62 -61 -111 -6 -31 -4 -38 16 -48 50 -27
168 10 189 60 15 37 5 86 -23 105 -31 22 -89 19 -121 -6z m85 -10 c25 -13 16
-29 -12 -22 -12 4 -32 -3 -50 -17 -43 -31 -51 -15 -11 21 36 32 44 34 73 18z"/>
<path d="M60 2132 c0 -23 36 -109 49 -117 22 -13 83 107 64 126 -12 12 -28 -1
-47 -39 -20 -38 -26 -37 -35 9 -7 36 -31 52 -31 21z"/>
<path d="M5 2050 c7 -152 66 -242 170 -263 25 -5 24 -4 -10 12 -86 39 -139
126 -155 252 l-9 74 4 -75z"/>
<path d="M3043 1339 c-40 -12 -73 -53 -73 -91 0 -26 2 -28 20 -18 11 6 20 17
20 25 0 19 48 55 76 55 34 0 81 -45 92 -88 l9 -37 7 36 c13 63 -20 104 -99
122 -11 3 -34 1 -52 -4z"/>
<path d="M3145 1130 c-3 -5 -27 -21 -53 -34 -45 -23 -97 -86 -71 -86 34 0 152
110 136 126 -3 3 -8 0 -12 -6z"/>
<path d="M2971 629 c-1 -50 18 -100 78 -198 66 -109 76 -144 53 -190 -9 -19
-33 -43 -52 -53 -73 -38 -227 -13 -293 48 -25 23 -27 30 -21 70 7 49 -4 56
-44 28 -22 -15 -52 -63 -52 -83 0 -27 117 -74 227 -91 50 -8 89 -8 139 0 93
15 126 35 138 85 14 59 -6 115 -76 219 -34 50 -70 116 -79 146 -17 53 -18 54
-18 19z"/>
<path d="M2680 552 c0 -4 14 -23 30 -42 l31 -35 -21 43 c-18 37 -40 56 -40 34z"/>
</g>
</svg>
