<?xml version="1.0" standalone="no"?>
<!DOCTYPE svg PUBLIC "-//W3C//DTD SVG 20010904//EN"
 "http://www.w3.org/TR/2001/REC-SVG-20010904/DTD/svg10.dtd">
<svg version="1.0" xmlns="http://www.w3.org/2000/svg"
 width="301.000000pt" height="363.000000pt" viewBox="0 0 301.000000 363.000000"
 preserveAspectRatio="xMidYMid meet">

<g transform="translate(0.000000,363.000000) scale(0.100000,-0.100000)"
fill="#000000" stroke="none">
<path d="M353 3526 c-15 -7 -31 -33 -48 -81 -45 -124 -65 -240 -71 -405 -7
-168 7 -287 46 -398 48 -133 62 -240 35 -262 -8 -7 -15 -21 -15 -31 0 -11 -31
-52 -70 -93 -82 -86 -88 -106 -30 -106 22 0 40 -3 40 -7 0 -14 -58 -109 -74
-122 -18 -15 -22 -51 -6 -51 6 0 27 7 47 15 52 22 52 20 -1 -34 -55 -56 -54
-76 3 -68 20 3 47 9 60 13 24 7 24 6 -8 -33 -40 -50 -34 -78 15 -70 39 7 43
-2 14 -28 -23 -21 -26 -50 -6 -58 8 -3 31 -1 51 4 92 26 26 -28 -105 -87 -58
-25 -115 -48 -128 -51 -13 -3 -26 -12 -29 -20 -12 -30 17 -38 160 -43 l142 -5
-84 -49 c-46 -27 -103 -66 -126 -85 -24 -20 -58 -47 -76 -62 -22 -16 -30 -29
-25 -38 11 -17 42 -11 144 27 l83 32 -71 -70 c-75 -74 -87 -106 -40 -104 14 1
34 5 45 9 16 7 15 4 -4 -12 -37 -30 -22 -50 42 -58 30 -4 78 -5 106 -4 28 2
51 3 51 1 0 -2 -15 -22 -34 -45 -46 -57 -106 -158 -106 -180 0 -29 28 -31 69
-4 21 14 75 44 121 67 65 33 81 38 75 23 -39 -97 -29 -114 56 -91 l60 16 -44
-47 c-60 -64 -72 -88 -56 -108 10 -11 26 -14 61 -11 l48 5 -27 -49 c-33 -60
-23 -79 30 -60 48 17 49 16 21 -25 -22 -33 -23 -38 -10 -52 12 -12 20 -12 41
-3 52 24 110 -18 160 -119 25 -49 57 -87 124 -151 98 -92 170 -134 316 -185
75 -25 91 -27 245 -28 146 0 173 3 230 23 36 12 77 30 92 40 54 36 219 188
243 224 14 21 30 38 36 38 18 0 129 54 129 63 0 5 -9 20 -20 34 -11 14 -17 29
-15 34 8 12 112 49 140 49 39 0 39 18 -1 62 l-38 42 50 23 c27 12 53 24 58 26
21 7 -6 59 -41 80 -36 21 -37 21 -12 28 13 4 39 7 57 8 25 1 32 5 32 21 0 12
-10 25 -26 32 -23 11 -24 13 -7 19 10 4 42 8 71 8 43 1 52 4 52 19 0 9 -17 28
-38 41 -20 13 -32 25 -27 27 6 1 44 8 85 14 95 16 103 24 64 58 -28 23 -54 60
-54 75 0 3 26 -1 58 -9 72 -17 208 -18 218 -2 4 7 0 16 -10 22 -23 14 -63 42
-114 82 l-40 30 74 30 c49 19 74 34 74 45 0 9 -33 34 -81 62 -73 41 -79 46
-61 56 12 6 32 11 45 11 60 0 31 67 -53 127 -33 24 -60 47 -60 51 0 10 105 62
125 62 28 0 16 38 -15 49 -16 5 -30 12 -30 15 0 2 25 10 56 16 61 13 76 31 49
60 -18 20 -17 20 38 20 71 0 74 15 16 70 -23 21 -39 45 -37 52 3 7 29 20 59
29 66 20 74 41 25 64 -19 9 -41 24 -48 32 -10 13 -8 18 15 35 34 24 35 51 3
72 -14 8 -39 36 -56 62 -32 45 -32 46 -31 172 0 71 7 171 17 227 20 118 32
407 22 518 -10 106 -65 295 -95 327 -12 13 -19 10 -54 -30 -49 -55 -143 -193
-184 -269 -31 -58 -133 -202 -195 -275 -19 -23 -53 -66 -74 -95 -37 -50 -40
-52 -48 -31 -7 19 -13 21 -41 16 -28 -5 -33 -3 -34 15 -3 32 -9 34 -60 21 -42
-12 -47 -11 -60 8 -19 27 -41 25 -109 -10 -60 -32 -59 -32 -85 13 -11 20 -39
22 -58 5 -10 -11 -16 -9 -28 10 -20 28 -49 28 -117 -2 -57 -25 -66 -25 -66 6
0 45 -59 27 -119 -36 -19 -20 -38 -36 -42 -36 -3 0 -9 18 -13 40 -3 23 -13 43
-22 47 -19 7 -48 -20 -65 -58 l-12 -31 -24 26 c-28 31 -43 26 -90 -27 l-30
-34 -16 29 c-17 30 -40 36 -56 16 -6 -7 -24 -29 -40 -48 l-31 -35 -204 208
c-167 172 -212 224 -252 293 -27 47 -65 107 -86 133 -20 26 -45 66 -56 88 -27
52 -41 62 -69 49z m59 -187 c48 -59 102 -163 189 -368 74 -175 123 -347 90
-317 -25 23 -39 20 -60 -14 -16 -27 -20 -29 -31 -15 -16 19 -29 19 -51 -1 -15
-14 -18 -12 -28 16 -16 48 -45 37 -51 -20 l-5 -45 -15 30 c-22 43 -43 38 -59
-15 -8 -25 -16 -38 -19 -30 -2 8 -17 49 -32 90 -46 122 -64 259 -57 430 7 151
19 224 41 250 8 8 17 30 21 49 6 29 9 32 19 20 6 -8 28 -36 48 -60z m2403 -39
c24 -123 31 -470 11 -565 -9 -38 -21 -97 -27 -130 l-12 -60 -11 55 c-13 63
-31 73 -72 41 -36 -28 -46 -26 -33 6 14 38 5 53 -35 53 -25 0 -35 5 -39 20 -6
24 -37 26 -97 5 -47 -17 -100 -20 -100 -6 0 5 12 44 26 87 36 109 121 281 193
389 69 104 160 210 171 198 4 -4 15 -46 25 -93z m-345 -1030 c0 -65 -83 -155
-153 -165 -50 -8 -119 8 -138 31 -11 14 -10 18 6 30 16 12 20 11 32 -6 11 -16
26 -20 73 -20 70 0 90 19 90 87 0 38 3 43 28 49 15 3 32 7 37 9 21 7 25 4 25
-15z m-1727 -6 c20 -5 27 -12 27 -30 0 -38 34 -64 83 -64 24 0 48 5 54 11 8 8
17 7 34 -4 l22 -16 -29 -13 c-16 -6 -56 -12 -90 -12 -52 -1 -66 3 -98 28 -51
39 -88 124 -48 112 9 -3 29 -8 45 -12z m1250 -786 c29 -97 39 -176 35 -280 -3
-96 -6 -108 -42 -178 -39 -75 -94 -161 -81 -125 22 59 27 111 21 226 -6 143
-12 163 -60 217 l-35 38 51 50 c27 27 56 61 64 77 8 15 18 27 22 27 5 0 16
-24 25 -52z m-748 -116 c22 -14 42 -27 44 -29 2 -1 -12 -26 -30 -55 -33 -52
-34 -55 -39 -188 l-5 -135 -32 50 c-54 85 -77 167 -78 275 0 69 5 105 17 133
l18 38 32 -31 c18 -17 51 -43 73 -58z m541 -59 c-8 -60 -28 -118 -41 -121 -12
-3 -27 84 -20 115 4 18 44 50 64 53 2 0 1 -21 -3 -47z m-372 -4 l35 -20 -19
-42 c-10 -23 -22 -51 -25 -62 -6 -18 -7 -19 -16 -3 -11 20 -25 148 -16 148 3
0 22 -9 41 -21z m266 -7 c0 -5 -5 -34 -11 -65 -12 -59 -25 -73 -33 -34 -3 12
-7 35 -11 51 -4 20 -1 32 12 42 20 15 43 18 43 6z m-117 -72 c-9 -33 -19 -60
-23 -60 -10 0 -40 75 -40 100 0 17 7 20 39 20 l39 0 -15 -60z m-369 -590 c15
-22 43 -59 62 -80 l36 -39 -7 -76 c-7 -68 -9 -75 -29 -74 -49 1 -80 32 -104
105 -25 73 -40 229 -28 280 7 28 8 27 25 -23 10 -28 30 -70 45 -93z m741 -107
c-9 -86 -54 -169 -103 -190 -18 -7 -37 -11 -42 -8 -6 4 -10 28 -10 55 0 48 2
52 78 129 42 44 78 80 80 80 2 1 1 -29 -3 -66z m-428 -101 c-4 -69 -9 -127
-11 -129 -3 -3 -19 -2 -36 2 l-32 7 7 61 c4 34 16 81 27 106 10 24 20 53 23
65 2 12 4 22 4 24 1 2 6 0 12 -4 9 -5 10 -43 6 -132z m223 18 c-13 -106 -15
-112 -41 -126 -16 -8 -31 -14 -34 -14 -8 0 4 106 17 148 5 18 15 38 21 45 7 6
18 25 25 41 22 49 25 21 12 -94z m-110 40 c5 -53 -1 -156 -8 -168 -5 -7 -25
-15 -44 -18 l-36 -6 10 53 c5 30 18 77 28 104 10 28 22 59 25 70 5 17 8 17 15
5 4 -8 9 -26 10 -40z m-238 -5 c12 -31 15 -60 11 -95 -6 -52 -11 -57 -45 -39
-19 10 -20 17 -13 87 10 110 20 120 47 47z"/>
</g>
</svg>
